<svg width="64" height="64" viewBox="0 0 64 64" fill="none" xmlns="http://www.w3.org/2000/svg">
<g id="vuesax/bold/crown">
<g id="crown">
<path id="Vector" d="M45.3334 58.6665H18.6667C17.5734 58.6665 16.6667 57.7598 16.6667 56.6665C16.6667 55.5732 17.5734 54.6665 18.6667 54.6665H45.3334C46.4267 54.6665 47.3334 55.5732 47.3334 56.6665C47.3334 57.7598 46.4267 58.6665 45.3334 58.6665Z" fill="#DADCE5"/>
<path id="Vector_2" d="M54.2668 14.7199L43.6001 22.3466C42.1868 23.3599 40.1601 22.7466 39.5468 21.1199L34.5068 7.67994C33.6534 5.35994 30.3734 5.35994 29.5201 7.67994L24.4534 21.0933C23.8401 22.7466 21.8401 23.3599 20.4268 22.3199L9.7601 14.6933C7.62676 13.1999 4.8001 15.3066 5.6801 17.7866L16.7734 48.8533C17.1468 49.9199 18.1601 50.6133 19.2801 50.6133H44.6934C45.8134 50.6133 46.8268 49.8933 47.2001 48.8533L58.2934 17.7866C59.2001 15.3066 56.3734 13.1999 54.2668 14.7199ZM38.6668 39.3333H25.3334C24.2401 39.3333 23.3334 38.4266 23.3334 37.3333C23.3334 36.2399 24.2401 35.3333 25.3334 35.3333H38.6668C39.7601 35.3333 40.6668 36.2399 40.6668 37.3333C40.6668 38.4266 39.7601 39.3333 38.6668 39.3333Z" fill="#DADCE5"/>
</g>
</g>
</svg>
