<svg width="32" height="32" viewBox="0 0 32 32" fill="none" xmlns="http://www.w3.org/2000/svg">
<path d="M27.7734 10.68L19.04 3.69332C17.3334 2.33332 14.6667 2.31998 12.9734 3.67998L4.24003 10.68C2.9867 11.68 2.2267 13.68 2.49337 15.2533L4.17337 25.3066C4.56003 27.56 6.65336 29.3333 8.93337 29.3333H23.0667C25.32 29.3333 27.4534 27.52 27.84 25.2933L29.52 15.24C29.76 13.68 29 11.68 27.7734 10.68ZM17 24C17 24.5467 16.5467 25 16 25C15.4534 25 15 24.5467 15 24V20C15 19.4533 15.4534 19 16 19C16.5467 19 17 19.4533 17 20V24Z" fill="#DADCE5"/>
</svg>
