<svg width="56" height="56" viewBox="0 0 56 56" fill="none" xmlns="http://www.w3.org/2000/svg">
<path d="M28.0001 4.66669C15.1434 4.66669 4.66675 15.1434 4.66675 28C4.66675 40.8567 15.1434 51.3334 28.0001 51.3334C40.8568 51.3334 51.3334 40.8567 51.3334 28C51.3334 15.1434 40.8568 4.66669 28.0001 4.66669Z" fill="white"/>
<path d="M28.0001 4.66669C15.1434 4.66669 4.66675 15.1434 4.66675 28C4.66675 40.8567 15.1434 51.3334 28.0001 51.3334C40.8568 51.3334 51.3334 40.8567 51.3334 28C51.3334 15.1434 40.8568 4.66669 28.0001 4.66669ZM37.3334 29.75H29.7501V37.3334C29.7501 38.29 28.9567 39.0834 28.0001 39.0834C27.0434 39.0834 26.2501 38.29 26.2501 37.3334V29.75H18.6667C17.7101 29.75 16.9167 28.9567 16.9167 28C16.9167 27.0434 17.7101 26.25 18.6667 26.25H26.2501V18.6667C26.2501 17.71 27.0434 16.9167 28.0001 16.9167C28.9567 16.9167 29.7501 17.71 29.7501 18.6667V26.25H37.3334C38.2901 26.25 39.0834 27.0434 39.0834 28C39.0834 28.9567 38.2901 29.75 37.3334 29.75Z" fill="#5F9DFE"/>
</svg>
