<svg width="360" height="64" viewBox="0 0 360 64" fill="none" xmlns="http://www.w3.org/2000/svg">
<path fill-rule="evenodd" clip-rule="evenodd" d="M156.607 21.8029C144.287 8.59431 138.127 1.99001 135.838 0.995006C133.549 0 130.366 0 124 0H24C12.6863 0 7.02944 0 3.51472 3.51472C0 7.02944 0 12.6863 0 24V40C0 51.3137 0 56.9706 3.51472 60.4853C7.02944 64 12.6863 64 24 64H336C347.314 64 352.971 64 356.485 60.4853C360 56.9706 360 51.3137 360 40V24C360 12.6863 360 7.02944 356.485 3.51472C352.971 0 347.314 0 336 0H236C229.634 0 226.451 0 224.162 0.995007C221.873 1.99001 215.713 8.59431 203.393 21.8029C197.546 28.0719 189.219 32 180 32C170.781 32 162.454 28.0719 156.607 21.8029Z" fill="white"/>
</svg>
