<svg width="24" height="24" viewBox="0 0 24 24" fill="none" xmlns="http://www.w3.org/2000/svg">
<g id="vuesax/outline/document-copy">
<g id="document-copy">
<path id="Vector" d="M11.4 22.25H7.6C5.46785 22.25 4.03739 21.7728 3.1323 20.8677C2.22721 19.9626 1.75 18.5321 1.75 16.4V12.6C1.75 10.4679 2.22721 9.03739 3.1323 8.1323C4.03739 7.22721 5.46785 6.75 7.6 6.75H10.6C10.7339 6.75 10.85 6.86614 10.85 7C10.85 7.13386 10.7339 7.25 10.6 7.25H7.6C5.77505 7.25 4.38945 7.56844 3.47895 8.47895C2.56844 9.38945 2.25 10.7751 2.25 12.6V16.4C2.25 18.2249 2.56844 19.6105 3.47895 20.5211C4.38945 21.4316 5.77505 21.75 7.6 21.75H11.4C13.2249 21.75 14.6105 21.4316 15.5211 20.5211C16.4316 19.6105 16.75 18.2249 16.75 16.4V13.4C16.75 13.2661 16.8661 13.15 17 13.15C17.1339 13.15 17.25 13.2661 17.25 13.4V16.4C17.25 18.5321 16.7728 19.9626 15.8677 20.8677C14.9626 21.7728 13.5321 22.25 11.4 22.25Z" fill="#5F9DFE" stroke="#5F9DFE"/>
<path id="Vector_2" d="M10.4928 6.77538L10.4999 6.77258L10.507 6.76957C10.5871 6.73521 10.6949 6.74813 10.7815 6.82859L17.1765 13.2236C17.246 13.2931 17.2676 13.4062 17.2304 13.493L17.2274 13.5001L17.2246 13.5072C17.1942 13.5847 17.1067 13.65 17 13.65H13.8C12.446 13.65 11.6221 13.3725 11.1248 12.8752C10.6275 12.3779 10.35 11.554 10.35 10.2V7C10.35 6.89334 10.4153 6.80583 10.4928 6.77538ZM11.7036 8.45645L10.85 7.60289V8.81V10.2C10.85 11.1836 10.9501 11.9997 11.4752 12.5248C12.0003 13.0499 12.8164 13.15 13.8 13.15H15.19H16.3971L15.5436 12.2964L11.7036 8.45645Z" fill="#5F9DFE" stroke="#5F9DFE"/>
<path id="Vector_3" d="M15.6 2.75H11.6C11.19 2.75 10.85 2.41 10.85 2C10.85 1.59 11.19 1.25 11.6 1.25H15.6C16.01 1.25 16.35 1.59 16.35 2C16.35 2.41 16.01 2.75 15.6 2.75Z" fill="#5F9DFE"/>
<path id="Vector_4" d="M7 5.75C6.59 5.75 6.25 5.41 6.25 5C6.25 2.93 7.93 1.25 10 1.25H12.62C13.03 1.25 13.37 1.59 13.37 2C13.37 2.41 13.03 2.75 12.62 2.75H10C8.76 2.75 7.75 3.76 7.75 5C7.75 5.41 7.41 5.75 7 5.75Z" fill="#5F9DFE"/>
<path id="Vector_5" d="M19.19 17.75C18.78 17.75 18.44 17.41 18.44 17C18.44 16.59 18.78 16.25 19.19 16.25C20.33 16.25 21.25 15.32 21.25 14.19V8C21.25 7.59 21.59 7.25 22 7.25C22.41 7.25 22.75 7.59 22.75 8V14.19C22.75 16.15 21.15 17.75 19.19 17.75Z" fill="#5F9DFE"/>
<path id="Vector_6" d="M22 8.75H19C16.34 8.75 15.25 7.66 15.25 5V2C15.25 1.7 15.43 1.42 15.71 1.31C15.99 1.19 16.31 1.26 16.53 1.47L22.53 7.47C22.74 7.68 22.81 8.01 22.69 8.29C22.58 8.57 22.3 8.75 22 8.75ZM16.75 3.81V5C16.75 6.83 17.17 7.25 19 7.25H20.19L16.75 3.81Z" fill="#5F9DFE"/>
</g>
</g>
</svg>
