<svg width="64" height="64" viewBox="0 0 64 64" fill="none" xmlns="http://www.w3.org/2000/svg">
<g id="vuesax/bold/frame">
<g id="frame">
<path id="Vector" d="M31.9999 5.3335C25.0133 5.3335 19.3333 11.0135 19.3333 18.0002C19.3333 24.8535 24.6933 30.4002 31.6799 30.6402C31.8933 30.6135 32.1066 30.6135 32.2666 30.6402C32.3199 30.6402 32.3466 30.6402 32.3999 30.6402C32.4266 30.6402 32.4266 30.6402 32.4533 30.6402C39.2799 30.4002 44.6399 24.8535 44.6666 18.0002C44.6666 11.0135 38.9866 5.3335 31.9999 5.3335Z" fill="#5F9DFE"/>
<path id="Vector_2" d="M45.5466 37.7332C38.1066 32.7732 25.9732 32.7732 18.4799 37.7332C15.0932 39.9999 13.2266 43.0665 13.2266 46.3465C13.2266 49.6265 15.0932 52.6665 18.4532 54.9065C22.1866 57.4132 27.0932 58.6665 31.9999 58.6665C36.9066 58.6665 41.8132 57.4132 45.5466 54.9065C48.9066 52.6399 50.7732 49.5999 50.7732 46.2932C50.7466 43.0132 48.9066 39.9732 45.5466 37.7332Z" fill="#5F9DFE"/>
</g>
</g>
</svg>
